 <svg  version="1.0" xmlns="http://www.w3.org/2000/svg"  width="300.000000pt" height="298.000000pt" viewBox="0 0 300.000000 298.000000"  preserveAspectRatio="xMidYMid meet">  <g transform="translate(0.000000,298.000000) scale(0.100000,-0.100000)" fill="#22c55e" stroke="none"> <path d="M0 1490 c0 -983 3 -1490 10 -1490 7 0 9 503 7 1485 l-2 1485 1483 0 1482 0 0 -1485 c0 -983 3 -1485 10 -1485 7 0 10 503 10 1490 l0 1490 -1500 0 -1500 0 0 -1490z"/> <path d="M1723 2763 c-10 -3 -13 -37 -13 -119 l0 -114 -335 0 c-320 0 -335 -1 -345 -19 -6 -12 -10 -134 -10 -325 l0 -306 -160 0 c-182 0 -183 -1 -170 -80 l7 -45 2 47 c0 26 7 50 14 55 6 4 79 9 161 11 82 1 152 5 155 8 3 3 6 134 6 290 l0 284 338 0 337 0 0 -230 0 -230 24 0 24 0 1 -177 c1 -99 -3 -185 -9 -193 -8 -13 -55 -16 -287 -20 l-278 -6 277 -2 c240 -2 279 0 292 14 13 13 16 46 16 200 l0 184 175 0 175 0 0 220 c0 189 2 220 15 220 12 0 15 13 15 60 0 48 -3 58 -15 54 -12 -5 -15 13 -17 108 l-3 113 -190 1 c-104 1 -196 -1 -202 -3z m387 -388 l0 -375 -195 0 -195 0 0 375 0 375 195 0 195 0 0 -375z m30 110 c0 -25 -4 -45 -10 -45 -5 0 -10 20 -10 45 0 25 5 45 10 45 6 0 10 -20 10 -45z"/> <path d="M1767 2663 c-1 -1 0 -31 1 -67 l4 -66 64 0 64 0 0 64 0 64 -66 4 c-36 1 -66 2 -67 1z m113 -68 l0 -45 -45 0 -45 0 0 45 0 45 45 0 45 0 0 -45z"/> <path d="M1993 2653 l-53 -4 0 -55 0 -54 55 0 55 0 0 60 c0 33 -1 59 -2 58 -2 -1 -27 -3 -55 -5z"/> <path d="M1780 2445 l0 -55 55 0 55 0 0 55 0 55 -55 0 -55 0 0 -55z m76 -11 c-6 -16 -42 -19 -50 -5 -8 13 4 42 14 36 5 -3 12 0 16 6 9 16 28 -17 20 -37z"/> <path d="M1940 2445 l0 -55 55 0 55 0 0 55 0 55 -55 0 -55 0 0 -55z m83 13 c8 -26 -5 -48 -29 -48 -26 0 -40 20 -30 45 7 18 53 20 59 3z"/> <path d="M1770 2300 l0 -60 65 0 66 0 -3 58 -3 57 -62 3 -63 3 0 -61z m110 0 l0 -50 -50 0 -50 0 0 50 0 50 50 0 50 0 0 -50z"/> <path d="M1940 2300 l0 -55 55 -1 55 0 0 55 0 56 -55 0 -55 0 0 -55z m78 -6 c-2 -11 -12 -19 -26 -20 -17 -1 -22 4 -22 22 0 13 7 24 18 27 23 5 35 -7 30 -29z"/> <path d="M1940 2153 l0 -58 55 0 55 0 0 58 0 57 -55 0 -55 0 0 -57z"/> <path d="M1780 2145 l0 -55 55 0 55 0 0 55 0 55 -55 0 -55 0 0 -55z m80 5 c0 -25 -4 -30 -24 -30 -13 0 -26 7 -30 15 -9 25 4 45 30 45 20 0 24 -5 24 -30z"/> <path d="M1130 2143 l0 -253 38 -1 c20 0 81 0 135 1 90 1 98 0 95 -17 -3 -16 -15 -18 -106 -18 -56 0 -102 -3 -102 -7 0 -5 25 -8 55 -8 52 0 55 -1 55 -25 0 -18 -5 -25 -20 -25 -11 0 -20 -4 -20 -10 0 -5 9 -10 19 -10 20 0 31 18 31 51 0 17 8 19 94 19 82 0 95 -2 99 -17 4 -17 5 -17 6 0 1 14 11 17 52 17 46 0 50 2 47 22 -2 12 -13 27 -24 33 -12 6 -29 17 -38 24 -11 10 -16 10 -16 2 0 -9 -43 -12 -160 -10 -97 1 -160 5 -160 11 0 6 -11 3 -25 -6 -21 -14 -25 -14 -25 -2 0 9 12 27 27 41 15 14 23 25 17 25 -7 0 -17 -7 -24 -15 -7 -9 -15 -13 -19 -10 -5 6 -2 367 4 373 2 2 19 -13 39 -34 20 -21 38 -36 40 -33 3 3 -15 26 -40 52 -67 69 -49 76 25 10 35 -32 59 -48 53 -36 -7 12 -22 30 -35 40 -49 39 -44 40 136 42 95 1 180 -1 189 -4 23 -9 -160 -188 -186 -181 -18 5 -18 4 -3 -11 15 -15 23 -9 109 75 128 126 148 143 148 125 0 -9 -152 -166 -200 -207 l-29 -24 21 -18 c20 -19 21 -19 14 2 -5 17 12 39 89 116 52 53 97 92 100 88 4 -7 9 -352 6 -414 -1 -15 -4 -16 -16 -6 -9 7 -18 10 -22 6 -10 -9 8 -22 40 -30 l27 -6 0 257 0 258 -270 0 -270 0 0 -252z m463 -267 c9 -23 -2 -26 -95 -26 -81 0 -88 2 -88 20 0 19 7 20 89 20 67 0 90 -3 94 -14z"/> <path d="M1270 2239 c0 -4 18 -25 40 -45 22 -21 40 -44 40 -52 0 -8 -18 -33 -40 -54 -22 -22 -40 -44 -40 -49 0 -5 25 16 56 46 l56 55 -56 54 c-31 29 -56 50 -56 45z"/> <path d="M2207 2125 c-18 -18 -24 -253 -7 -285 10 -19 21 -20 203 -20 137 0 196 3 205 12 17 17 17 279 0 296 -19 19 -382 17 -401 -3z m385 -27 c10 -17 10 -219 0 -236 -7 -9 -51 -12 -188 -10 l-179 3 0 125 0 125 48 3 c33 2 47 0 42 -7 -6 -11 9 -14 77 -15 42 -1 52 -19 13 -24 -24 -3 -25 -6 -25 -78 0 -56 -3 -75 -12 -71 -9 3 -13 27 -12 75 0 68 -1 72 -22 72 -28 0 -41 -18 -20 -26 12 -5 16 -21 16 -70 l0 -64 95 0 c84 0 95 2 94 18 0 10 -3 12 -6 5 -6 -16 -35 -17 -51 -1 -7 7 -12 31 -12 54 0 24 -5 45 -12 48 -10 5 -10 7 0 12 6 3 12 12 12 20 0 8 7 14 15 14 8 0 15 -7 15 -15 0 -8 7 -15 15 -15 8 0 15 -4 15 -10 0 -5 -7 -10 -15 -10 -11 0 -15 -11 -15 -40 0 -28 4 -40 14 -40 9 0 14 12 14 34 0 19 3 39 6 45 11 18 -11 47 -49 65 -19 10 -33 22 -29 27 8 14 146 2 156 -13z m-171 -105 c0 -5 2 -21 4 -36 2 -17 0 -27 -7 -25 -14 5 -21 68 -8 68 6 0 10 -3 11 -7z"/> <path d="M2330 1870 c-10 -7 16 -10 83 -10 63 0 96 4 92 10 -8 13 -155 13 -175 0z"/> <path d="M1383 2116 c-8 -15 -72 -82 -98 -104 -8 -7 -15 -17 -15 -22 0 -5 17 7 39 28 21 20 50 48 64 61 l26 23 22 -21 c35 -32 35 -16 1 19 -25 24 -32 27 -39 16z"/> <path d="M1865 1930 c-4 -6 -11 -7 -17 -4 -7 4 -8 2 -4 -4 4 -7 0 -12 -11 -13 -11 0 -13 -3 -5 -6 7 -3 19 1 27 7 11 9 15 9 15 1 0 -6 8 -11 18 -11 15 1 15 2 -3 12 -19 11 -19 11 0 19 16 6 17 8 3 8 -9 1 -20 -4 -23 -9z"/> <path d="M1961 1923 c-1 -17 5 -23 19 -23 14 0 20 7 20 23 -1 21 -1 21 -12 2 -11 -19 -11 -19 -19 0 -7 19 -8 18 -8 -2z"/> <path d="M717 1844 c-4 -4 -7 -105 -7 -225 0 -249 -10 -225 95 -232 48 -3 47 -3 -12 -5 -80 -3 -93 3 -94 42 l-1 31 -10 -28 c-16 -45 2 -57 88 -57 83 0 89 -5 89 -70 l0 -45 75 0 75 0 0 45 c0 65 6 70 89 70 43 0 77 5 84 12 7 7 12 43 12 92 0 95 -10 95 -16 -1 -2 -37 -7 -74 -9 -80 -3 -9 -27 -12 -77 -11 -56 1 -62 2 -23 5 28 2 60 6 73 8 l22 5 -2 223 -3 222 -221 3 c-121 1 -223 -1 -227 -4z m443 -219 l0 -215 -60 0 c-56 0 -60 2 -60 23 0 12 -14 47 -31 77 -25 44 -31 66 -30 106 l2 51 -41 0 -41 0 1 -51 c1 -39 -6 -65 -29 -110 -17 -32 -31 -67 -31 -77 0 -16 -8 -19 -60 -19 l-60 0 0 208 c0 115 3 212 7 215 3 4 102 7 220 7 l213 0 0 -215z m-249 -154 c-12 -12 -21 -25 -21 -31 0 -13 37 -50 50 -50 12 0 50 37 50 49 0 4 -9 20 -20 34 -14 17 -20 40 -20 74 l0 48 35 -63 c45 -84 50 -110 29 -161 -16 -41 -16 -41 -70 -41 -45 0 -56 4 -68 23 -30 49 -29 75 11 160 l38 81 3 -51 c2 -42 -1 -56 -17 -72z m49 -6 c18 -22 3 -57 -23 -53 -25 3 -34 32 -17 53 16 19 24 19 40 0z m30 -175 c0 -5 -22 -10 -50 -10 -27 0 -50 5 -50 10 0 6 23 10 50 10 28 0 50 -4 50 -10z"/> <path d="M1410 1782 c0 -10 166 -10 176 1 4 4 -34 7 -84 7 -51 0 -92 -4 -92 -8z"/> <path d="M1245 1749 c-33 -3 39 -6 160 -5 215 0 217 3 5 8 -58 2 -132 0 -165 -3z"/> <path d="M1280 1710 l-95 -6 103 -2 c67 -1 101 2 97 8 -3 6 -7 9 -8 8 -1 -1 -45 -5 -97 -8z"/> <path d="M1530 1710 l-125 -6 133 -2 c83 -1 132 2 132 8 0 6 -3 9 -7 8 -5 -1 -64 -5 -133 -8z"/> <path d="M1923 1701 c-13 -14 -23 -17 -33 -11 -8 5 -22 4 -33 -2 -15 -8 -18 -17 -14 -42 5 -30 3 -33 -18 -28 -16 3 -27 -2 -34 -16 -13 -24 -6 -48 21 -78 13 -14 16 -24 9 -29 -27 -16 7 -55 49 -55 16 0 31 -4 34 -9 3 -5 15 -11 27 -14 16 -4 19 -2 15 10 -5 11 -2 14 10 9 8 -3 25 -1 36 5 16 8 22 8 29 -2 4 -7 5 -17 3 -21 -3 -4 5 -8 18 -9 60 -1 131 -23 168 -52 9 -7 4 -1 -10 13 -15 15 -49 31 -83 39 -53 13 -77 31 -42 31 9 0 19 8 22 18 4 9 13 23 21 31 7 7 11 20 8 28 -3 7 0 23 7 34 10 17 9 22 -3 32 -8 7 -14 22 -12 35 3 17 -2 25 -16 29 -11 3 -22 13 -25 24 -6 21 -41 26 -53 8 -5 -8 -12 -5 -23 9 -25 31 -56 36 -78 13z m71 -46 c13 -9 28 -15 32 -14 27 5 41 -5 52 -34 7 -18 12 -36 12 -40 0 -14 -23 -1 -55 31 -48 48 -95 45 -146 -8 -21 -22 -43 -40 -49 -40 -17 0 -11 26 10 45 11 10 20 24 20 32 0 14 53 41 83 42 10 1 28 -6 41 -14z m4 -67 c7 -7 12 -22 12 -34 0 -13 5 -26 10 -29 6 -3 10 3 10 15 0 13 5 20 13 18 20 -7 14 -26 -22 -68 -47 -55 -81 -55 -116 0 -27 42 -32 70 -14 70 6 0 9 -7 6 -15 -4 -8 -2 -17 3 -20 6 -4 10 6 10 21 0 44 58 72 88 42z"/> <path d="M1195 1670 c-4 -6 7 -10 24 -10 17 0 31 5 31 10 0 6 -11 10 -24 10 -14 0 -28 -4 -31 -10z"/> <path d="M1410 1670 c0 -6 29 -10 66 -10 41 0 63 4 59 10 -3 6 -33 10 -66 10 -33 0 -59 -4 -59 -10z"/> <path d="M2140 1511 c0 -5 7 -12 16 -15 24 -9 240 -7 266 3 l23 9 -2 -127 c-2 -69 -4 -205 -5 -301 -3 -145 -6 -181 -21 -207 -21 -40 -56 -64 -105 -74 l-37 -7 43 -1 c78 -2 125 52 136 154 3 33 6 156 7 273 1 230 4 252 26 252 13 0 14 -41 11 -292 l-3 -293 -27 -46 c-37 -63 -104 -99 -188 -99 -65 0 -90 -9 -130 -45 -14 -13 -35 -26 -46 -29 -12 -4 -28 -20 -36 -37 l-15 -30 -6 33 c-4 27 -3 321 2 351 2 10 129 9 165 -2 17 -6 47 -14 66 -18 62 -15 70 -74 18 -130 -23 -25 -18 -29 13 -13 29 16 52 68 45 103 -9 44 -34 67 -73 67 -18 0 -44 6 -56 14 -13 9 -47 14 -87 13 -36 0 -80 3 -98 7 l-32 8 2 -274 3 -273 43 -3 44 -3 -4 80 c-2 60 0 81 10 81 9 0 12 -27 12 -102 0 -56 -3 -99 -6 -95 -3 3 -14 -3 -25 -14 -10 -10 -25 -16 -34 -13 -9 4 -15 0 -15 -9 0 -8 -7 -20 -15 -27 -13 -11 -14 -9 -1 14 14 28 11 66 -5 66 -5 0 -9 -15 -9 -32 -1 -18 -3 -50 -6 -71 -3 -21 -1 -51 5 -67 9 -26 8 -30 -8 -30 -14 0 -20 10 -25 40 -5 29 -11 40 -24 40 -10 0 -23 5 -29 11 -7 7 -24 8 -42 4 -42 -9 -48 -22 -8 -18 18 2 27 0 20 -3 -18 -8 15 -41 50 -49 44 -11 31 -25 -23 -25 -38 0 -50 -4 -50 -15 0 -11 -13 -15 -54 -15 l-53 0 11 34 c7 24 15 32 26 28 8 -3 12 -2 8 3 -4 4 -22 11 -40 15 l-33 8 40 2 c22 1 46 2 54 1 7 -2 10 2 7 7 -8 14 11 26 67 44 33 11 44 12 37 3 -11 -14 -3 -25 18 -25 10 0 12 6 8 23 -4 12 -8 27 -10 32 -1 6 -9 23 -16 38 l-14 28 -16 -21 c-12 -16 -23 -20 -38 -15 -12 3 -22 12 -22 19 0 8 -6 19 -14 25 -11 9 -12 7 -9 -13 4 -20 -4 -29 -51 -57 -30 -19 -58 -42 -61 -51 -4 -10 -13 -18 -20 -18 -8 0 -22 -12 -32 -26 -16 -25 -16 -28 0 -55 l16 -29 -194 0 c-167 0 -195 2 -195 15 0 11 -12 15 -45 15 l-45 0 0 39 0 40 52 3 51 3 1 50 1 50 48 -3 47 -4 0 61 0 61 -100 0 -100 0 2 253 3 252 378 2 377 2 1 -27 c2 -23 2 -24 6 -4 4 22 7 22 142 22 l137 0 22 40 21 40 -72 0 c-44 0 -67 4 -58 9 9 6 10 11 2 15 -6 4 -11 15 -11 25 0 10 -11 30 -24 45 -19 23 -29 27 -57 22 -19 -3 -60 -10 -92 -15 -72 -13 -83 -8 -95 37 -9 33 -10 34 -11 10 -1 -17 -7 -28 -15 -28 -21 0 -40 -26 -25 -36 7 -4 19 3 30 17 l19 24 0 -27 c0 -33 4 -33 145 -18 49 5 90 8 91 7 1 -1 5 -21 9 -44 l7 -43 -71 0 c-54 0 -71 3 -71 14 0 16 -30 26 -86 26 -23 0 -55 3 -72 6 l-30 6 -7 132 c-4 73 -10 138 -14 145 -5 8 -69 11 -237 9 -217 -3 -229 -4 -232 -22 -6 -29 9 -268 16 -261 3 3 5 66 3 141 l-2 136 213 -4 213 -3 6 -50 c4 -27 9 -94 12 -148 l5 -98 -229 3 c-213 3 -229 2 -229 -14 0 -17 -15 -18 -181 -18 l-180 0 18 -31 c22 -39 26 -40 108 -42 l66 -2 2 -253 2 -252 -83 0 -83 0 3 -58 3 -57 48 1 47 0 0 -53 0 -53 35 0 c34 0 35 -1 35 -40 l0 -40 -45 0 c-31 0 -47 -5 -51 -15 -5 -12 -33 -15 -164 -15 l-157 0 -23 148 c-22 141 -29 176 -45 214 -6 16 4 18 97 21 l103 3 -107 2 c-107 2 -108 2 -108 26 0 23 4 24 78 28 42 2 103 2 135 0 63 -5 66 -10 43 -67 -13 -31 -19 -35 -50 -35 -20 0 -36 -4 -36 -10 0 -5 14 -10 30 -10 36 0 35 6 15 -155 -15 -124 -18 -161 -11 -154 3 2 12 69 21 149 9 80 23 160 30 178 8 18 18 50 21 72 l7 40 -43 0 c-36 0 -41 2 -35 18 65 153 92 316 65 387 -8 21 -16 26 -38 23 -21 -2 -32 -13 -50 -49 -26 -52 -44 -198 -24 -185 7 4 12 16 12 27 0 12 5 19 13 16 15 -5 14 -53 -3 -152 -11 -66 -15 -73 -30 -65 -10 5 -32 36 -50 67 -18 32 -47 79 -66 105 -27 39 -32 53 -27 82 3 20 9 36 13 36 4 0 22 -22 40 -50 18 -27 36 -50 41 -50 5 0 9 -24 9 -52 0 -29 9 -71 18 -93 l18 -40 -4 70 c-6 110 -78 239 -150 266 -33 13 -37 12 -71 -17 -64 -54 -27 -150 106 -274 l78 -73 -58 7 -57 7 0 -36 c0 -19 7 -51 15 -71 11 -26 65 -317 65 -349 0 -3 -83 -5 -185 -5 -117 0 -185 -4 -185 -10 0 -7 382 -10 1125 -10 743 0 1125 3 1125 10 0 6 -32 10 -77 10 -60 0 -74 3 -65 12 15 15 16 53 2 78 -6 11 -29 23 -57 29 -27 6 -100 28 -163 49 l-115 39 -3 101 c-2 95 -1 102 16 102 12 0 24 11 32 30 12 29 15 30 75 30 123 0 207 45 249 133 24 50 25 61 32 352 6 276 5 302 -10 318 -15 15 -42 17 -202 17 -101 0 -184 -4 -184 -9z m-184 -356 c17 -13 9 -14 -78 -15 -81 0 -98 3 -98 15 0 21 148 21 176 0z m-22 -41 c3 -9 6 -20 6 -25 0 -5 -191 -9 -468 -9 l-469 0 -11 25 -12 25 474 0 c423 0 475 -2 480 -16z m324 -9 l-11 -26 -145 3 c-140 3 -145 4 -153 26 l-8 22 164 0 165 0 -12 -25z m-1381 -105 c-5 -41 -11 -77 -13 -79 -2 -2 -10 1 -18 8 -12 10 -11 20 4 70 32 107 41 107 27 1z m29 -22 c-8 -128 -10 -136 -29 -155 -9 -10 -17 -13 -17 -8 0 12 28 190 36 228 11 56 17 24 10 -65z m-246 0 c0 -47 -10 -48 -44 -4 -27 36 -23 45 22 43 19 -1 22 -7 22 -39z m12 -92 l50 -69 -32 7 c-18 3 -38 6 -45 6 -19 0 -65 94 -65 131 0 32 0 32 21 13 11 -10 44 -50 71 -88z m43 -76 c12 0 71 -98 63 -105 -2 -2 -21 13 -43 33 -22 21 -53 48 -70 61 l-30 24 34 -7 c18 -3 39 -6 46 -6z m153 -47 c-26 -61 -30 -64 -22 -22 6 28 29 69 40 69 2 0 -6 -21 -18 -47z m287 -258 l1 -45 -73 0 -73 0 0 45 0 45 73 0 72 0 0 -45z m235 0 l0 -45 -95 0 -95 0 0 45 0 45 95 0 95 0 0 -45z m-235 -107 c3 -44 1 -48 -20 -48 -20 0 -24 6 -27 43 -6 51 -2 59 24 55 16 -2 20 -12 23 -50z m135 0 l0 -48 -45 0 -45 0 0 49 0 49 45 0 45 -1 0 -49z m564 8 c-12 -31 -94 -60 -108 -38 -3 5 8 7 23 4 21 -3 35 4 57 26 31 32 38 34 28 8z m401 -21 c61 -20 116 -38 123 -41 10 -3 8 -9 -7 -25 l-20 -21 -101 34 c-93 31 -103 37 -116 67 -10 24 -11 31 -1 28 6 -3 62 -22 122 -42z m-1065 -65 c0 -33 -4 -60 -10 -60 -6 0 -10 27 -10 60 0 33 4 60 10 60 6 0 10 -27 10 -60z m926 35 c-11 -8 -28 -15 -38 -15 -10 0 -31 -8 -46 -17 -25 -15 -26 -15 -12 0 9 9 36 23 60 31 58 18 59 18 36 1z m152 -40 c66 -21 92 -33 92 -45 0 -9 5 -21 12 -28 9 -9 -18 -12 -125 -12 l-137 0 16 25 c13 20 14 31 6 49 -8 18 -6 25 7 34 19 13 10 14 129 -23z m-530 -4 c36 -30 23 -71 -23 -71 -42 0 -59 44 -29 74 19 20 24 20 52 -3z m374 -5 c17 -39 6 -52 -41 -48 -35 4 -41 7 -41 28 0 44 63 60 82 20z m343 0 c24 -36 5 -68 -37 -64 -38 4 -53 36 -32 67 20 28 50 27 69 -3z m-1175 -66 c0 -6 -42 -10 -106 -10 -67 0 -103 4 -99 10 3 6 50 10 106 10 59 0 99 -4 99 -10z m810 0 c0 -6 -42 -10 -105 -10 -63 0 -105 4 -105 10 0 6 42 10 105 10 63 0 105 -4 105 -10z"/> <path d="M1864 1381 c-34 -21 -51 -41 -35 -41 5 0 25 9 44 20 26 16 40 18 58 11 13 -5 20 -10 14 -11 -29 -2 26 -20 63 -20 31 0 42 4 42 15 0 8 7 15 15 15 8 0 15 5 15 10 0 7 -6 7 -19 0 -30 -15 -107 -12 -125 5 -19 20 -35 19 -72 -4z"/> <path d="M2233 1318 c2 -7 9 -13 15 -12 7 1 45 2 85 4 56 2 65 4 42 10 -52 13 -147 12 -142 -2z"/> <path d="M440 1230 l0 -60 70 0 70 0 0 -50 0 -50 105 0 105 0 0 60 0 60 -70 0 -70 0 0 50 0 50 -105 0 -105 0 0 -60z m195 3 l3 -43 -94 0 -94 0 0 45 0 46 91 -3 91 -3 3 -42z m145 -108 l0 -46 -92 3 -93 3 -3 43 -3 42 95 0 96 0 0 -45z"/> <path d="M2252 1169 c6 -17 93 -24 128 -10 21 8 14 10 -37 10 -34 1 -69 4 -79 8 -12 4 -15 2 -12 -8z"/> <path d="M2560 1096 c0 -65 1 -66 121 -66 l89 0 0 60 0 60 -105 0 -105 0 0 -54z m200 -1 l0 -45 -95 0 -95 0 0 45 0 45 95 0 95 0 0 -45z"/> <path d="M2307 1065 c15 -30 29 -53 31 -51 6 6 -42 106 -50 106 -4 0 4 -25 19 -55z"/> <path d="M1926 985 c-11 -8 -44 -22 -75 -31 -65 -19 -122 -46 -140 -68 -14 -17 -10 -31 71 -268 l40 -117 44 -7 c25 -3 47 -4 50 -2 6 7 -15 233 -26 276 -7 28 -6 32 10 32 10 0 21 -8 23 -17 3 -10 11 -40 17 -68 7 -27 16 -53 19 -57 3 -4 5 71 3 167 -2 96 -6 175 -10 175 -4 0 -16 -7 -26 -15z m6 -72 c8 -38 -7 -84 -32 -96 -25 -13 -25 -13 -24 -145 1 -117 0 -133 -15 -130 -10 2 -27 35 -46 88 -17 47 -37 96 -44 108 -7 13 -15 36 -17 50 -2 15 -6 36 -9 48 -3 14 4 29 20 44 14 13 25 20 25 17 0 -4 17 1 38 12 48 26 98 27 104 4z"/> <path d="M1684 765 c-7 -28 18 -65 43 -65 17 0 17 15 -2 30 -8 7 -15 23 -15 36 0 32 -18 31 -26 -1z"/> <path d="M1964 550 c0 -52 1 -74 3 -47 2 26 2 68 0 95 -2 26 -3 4 -3 -48z"/> <path d="M762 3 c406 -2 1070 -2 1475 0 406 1 74 2 -737 2 -811 0 -1143 -1 -738 -2z"/> </g> </svg> 